<?xml version="1.0" encoding="UTF-8"?><svg xmlns="http://www.w3.org/2000/svg" xmlns:xlink="http://www.w3.org/1999/xlink" fill-opacity="1" color-rendering="auto" color-interpolation="auto" text-rendering="auto" stroke="black" stroke-linecap="square" width="1197" stroke-miterlimit="10" shape-rendering="auto" stroke-opacity="1" fill="black" stroke-dasharray="none" font-weight="normal" stroke-width="1" height="554" font-family="'Dialog'" font-style="normal" stroke-linejoin="miter" font-size="12px" stroke-dashoffset="0" image-rendering="auto">
  <!--Generated by ySVG 2.5-->
  <defs id="genericDefs"/>
  <g>
    <g fill="white" text-rendering="geometricPrecision" shape-rendering="geometricPrecision" transform="translate(-128,-359)" stroke="white">
      <rect x="128" width="1197" height="554" y="359" clip-path="url(#clipPath2)" stroke="none"/>
    </g>
    <g fill="url(#linearGradient1)" text-rendering="geometricPrecision" shape-rendering="geometricPrecision" transform="matrix(1,0,0,1,-128,-359)" stroke="url(#linearGradient1)">
      <ellipse rx="76" ry="20" clip-path="url(#clipPath2)" cx="219" cy="404" stroke="none"/>
    </g>
    <g text-rendering="geometricPrecision" stroke-miterlimit="1.45" shape-rendering="geometricPrecision" transform="matrix(1,0,0,1,-128,-359)" stroke-linecap="butt">
      <ellipse rx="76" fill="none" ry="20" clip-path="url(#clipPath2)" cx="219" cy="404"/>
      <text x="166.2891" font-size="24px" y="412.332" clip-path="url(#clipPath2)" font-family="'Poor Richard'" stroke="none" xml:space="preserve">Zombie Pen</text>
    </g>
    <g fill="url(#linearGradient2)" text-rendering="geometricPrecision" shape-rendering="geometricPrecision" transform="matrix(1,0,0,1,-128,-359)" stroke="url(#linearGradient2)">
      <path d="M327 374.5 L517 374.5 L517 433.5 L327 433.5 Z" stroke="none" clip-path="url(#clipPath2)"/>
    </g>
    <g text-rendering="geometricPrecision" stroke-miterlimit="1.45" shape-rendering="geometricPrecision" transform="matrix(1,0,0,1,-128,-359)" stroke-linecap="butt">
      <path fill="none" d="M327 374.5 L517 374.5 L517 433.5 L327 433.5 Z" clip-path="url(#clipPath2)"/>
      <text x="349.0508" font-size="24px" y="412.332" clip-path="url(#clipPath2)" font-family="'Poor Richard'" stroke="none" xml:space="preserve">Ice Golem Room</text>
    </g>
    <g fill="url(#linearGradient3)" text-rendering="geometricPrecision" shape-rendering="geometricPrecision" transform="matrix(1,0,0,1,-128,-359)" stroke="url(#linearGradient3)">
      <path d="M319 533 L525 533 L525 600 L319 600 Z" stroke="none" clip-path="url(#clipPath2)"/>
    </g>
    <g text-rendering="geometricPrecision" stroke-miterlimit="1.45" shape-rendering="geometricPrecision" transform="matrix(1,0,0,1,-128,-359)" stroke-linecap="butt">
      <path fill="none" d="M319 533 L525 533 L525 600 L319 600 Z" clip-path="url(#clipPath2)"/>
      <text x="339.2012" font-size="24px" y="574.832" clip-path="url(#clipPath2)" font-family="'Poor Richard'" stroke="none" xml:space="preserve">Birthing Chamber</text>
    </g>
    <g fill="url(#linearGradient4)" text-rendering="geometricPrecision" shape-rendering="geometricPrecision" transform="matrix(1,0,0,1,-128,-359)" stroke="url(#linearGradient4)">
      <path d="M728 668 L955 668 L955 735 L728 735 Z" stroke="none" clip-path="url(#clipPath2)"/>
    </g>
    <g text-rendering="geometricPrecision" stroke-miterlimit="1.45" shape-rendering="geometricPrecision" transform="matrix(1,0,0,1,-128,-359)" stroke-linecap="butt">
      <path fill="none" d="M728 668 L955 668 L955 735 L728 735 Z" clip-path="url(#clipPath2)"/>
      <text x="757.7578" font-size="24px" y="709.832" clip-path="url(#clipPath2)" font-family="'Poor Richard'" stroke="none" xml:space="preserve">Raiders' Chambers</text>
    </g>
    <g fill="url(#linearGradient5)" text-rendering="geometricPrecision" shape-rendering="geometricPrecision" transform="matrix(1,0,0,1,-128,-359)" stroke="url(#linearGradient5)">
      <path d="M475 668 L681 668 L681 735 L475 735 Z" stroke="none" clip-path="url(#clipPath2)"/>
    </g>
    <g text-rendering="geometricPrecision" stroke-miterlimit="1.45" shape-rendering="geometricPrecision" transform="matrix(1,0,0,1,-128,-359)" stroke-linecap="butt">
      <path fill="none" d="M475 668 L681 668 L681 735 L475 735 Z" clip-path="url(#clipPath2)"/>
      <text x="499.4785" font-size="24px" y="709.832" clip-path="url(#clipPath2)" font-family="'Poor Richard'" stroke="none" xml:space="preserve">Regular Entrance</text>
    </g>
    <g fill="url(#linearGradient6)" text-rendering="geometricPrecision" shape-rendering="geometricPrecision" transform="matrix(1,0,0,1,-128,-359)" stroke="url(#linearGradient6)">
      <path d="M585 533 L1023 533 L1023 600 L585 600 Z" stroke="none" clip-path="url(#clipPath2)"/>
    </g>
    <g text-rendering="geometricPrecision" stroke-miterlimit="1.45" shape-rendering="geometricPrecision" transform="matrix(1,0,0,1,-128,-359)" stroke-linecap="butt">
      <path fill="none" d="M585 533 L1023 533 L1023 600 L585 600 Z" clip-path="url(#clipPath2)"/>
      <text x="739.5059" font-size="24px" y="574.832" clip-path="url(#clipPath2)" font-family="'Poor Richard'" stroke="none" xml:space="preserve">Main Hallway</text>
    </g>
    <g fill="url(#linearGradient7)" text-rendering="geometricPrecision" shape-rendering="geometricPrecision" transform="matrix(1,0,0,1,-128,-359)" stroke="url(#linearGradient7)">
      <path d="M738.5 831 L944.5 831 L944.5 898 L738.5 898 Z" stroke="none" clip-path="url(#clipPath2)"/>
    </g>
    <g text-rendering="geometricPrecision" stroke-miterlimit="1.45" shape-rendering="geometricPrecision" transform="matrix(1,0,0,1,-128,-359)" stroke-linecap="butt">
      <path fill="none" d="M738.5 831 L944.5 831 L944.5 898 L738.5 898 Z" clip-path="url(#clipPath2)"/>
      <text x="771.0469" font-size="24px" y="872.832" clip-path="url(#clipPath2)" font-family="'Poor Richard'" stroke="none" xml:space="preserve">Secret Entrance</text>
    </g>
    <g fill="url(#linearGradient8)" text-rendering="geometricPrecision" shape-rendering="geometricPrecision" transform="matrix(1,0,0,1,-128,-359)" stroke="url(#linearGradient8)">
      <path d="M1104 533 L1310 533 L1310 600 L1104 600 Z" stroke="none" clip-path="url(#clipPath2)"/>
    </g>
    <g text-rendering="geometricPrecision" stroke-miterlimit="1.45" shape-rendering="geometricPrecision" transform="matrix(1,0,0,1,-128,-359)" stroke-linecap="butt">
      <path fill="none" d="M1104 533 L1310 533 L1310 600 L1104 600 Z" clip-path="url(#clipPath2)"/>
      <text x="1153.3691" font-size="24px" y="574.832" clip-path="url(#clipPath2)" font-family="'Poor Richard'" stroke="none" xml:space="preserve">Choir Room</text>
    </g>
    <g fill="url(#linearGradient9)" text-rendering="geometricPrecision" shape-rendering="geometricPrecision" transform="matrix(1,0,0,1,-128,-359)" stroke="url(#linearGradient9)">
      <path d="M585 438 L1023 438 L1023 472 L585 472 Z" stroke="none" clip-path="url(#clipPath2)"/>
    </g>
    <g text-rendering="geometricPrecision" stroke-miterlimit="1.45" shape-rendering="geometricPrecision" transform="matrix(1,0,0,1,-128,-359)" stroke-linecap="butt">
      <path fill="none" d="M585 438 L1023 438 L1023 472 L585 472 Z" clip-path="url(#clipPath2)"/>
      <text x="706.3125" font-size="24px" y="463.332" clip-path="url(#clipPath2)" font-family="'Poor Richard'" stroke="none" xml:space="preserve">Crawlspace/Conduit</text>
    </g>
    <g fill="url(#linearGradient10)" text-rendering="geometricPrecision" shape-rendering="geometricPrecision" transform="matrix(1,0,0,1,-128,-359)" stroke="url(#linearGradient10)">
      <path d="M1002 668 L1208 668 L1208 735 L1002 735 Z" stroke="none" clip-path="url(#clipPath2)"/>
    </g>
    <g text-rendering="geometricPrecision" stroke-miterlimit="1.45" shape-rendering="geometricPrecision" transform="matrix(1,0,0,1,-128,-359)" stroke-linecap="butt">
      <path fill="none" d="M1002 668 L1208 668 L1208 735 L1002 735 Z" clip-path="url(#clipPath2)"/>
      <text x="1015.6328" font-size="24px" y="709.832" clip-path="url(#clipPath2)" font-family="'Poor Richard'" stroke="none" xml:space="preserve">Whatever you want</text>
    </g>
    <g text-rendering="geometricPrecision" shape-rendering="geometricPrecision" transform="matrix(1,0,0,1,917,484.5)">
      <g clip-path="url(#clipPath3)">
        <svg xmlns:svg="http://www.w3.org/2000/svg" xmlns:sodipodi="http://sodipodi.sourceforge.net/DTD/sodipodi-0.dtd" xmlns:inkscape="http://www.inkscape.org/namespaces/inkscape" xmlns:dc="http://purl.org/dc/elements/1.1/" xmlns:cc="http://web.resource.org/cc/" xmlns:rdf="http://www.w3.org/1999/02/22-rdf-syntax-ns#" opacity="1" writing-mode="lr-tb" stop-color="rgb(0, 0, 0)" shape-rendering="auto" glyph-orientation-horizontal="0deg" color-profile="auto" lighting-color="rgb(255, 255, 255)" color="rgb(0, 0, 0)" font-weight="400" alignment-baseline="auto" font-style="normal" version="1.0" color-interpolation-filters="linearrgb" text-anchor="start" stroke-linecap="butt" color-interpolation="srgb" font-variant="normal" word-spacing="normal" fill-opacity="1" text-rendering="auto" clip-path="none" text-decoration="none" letter-spacing="normal" glyph-orientation-vertical="auto" display="inline" font-size-adjust="none" overflow="visible" fill="rgb(0, 0, 0)" font-stretch="normal" stroke-dasharray="none" inkscape:version="0.45+devel" id="svg1.svg2759" stroke-miterlimit="4" stop-opacity="1" color-rendering="auto" font-size="12" pointer-events="visiblepainted" mask="none" direction="ltr" baseline-shift="baseline" sodipodi:docname="by.svg" enable-background="accumulate" fill-rule="nonzero" image-rendering="auto" stroke-dashoffset="0" inkscape:output_extension="org.inkscape.output.svg.inkscape" marker-end="none" width="120" clip="auto" cursor="auto" stroke="none" filter="none" visibility="visible" kerning="auto" stroke-width="1" font-family="&quot;Arial&quot;,&quot;Helvetica&quot;,sans-serif" flood-opacity="1" clip-rule="nonzero" src="none" height="42" unicode-bidi="normal" sodipodi:version="0.32" stroke-linejoin="miter" stroke-opacity="1" flood-color="rgb(0, 0, 0)" dominant-baseline="auto" marker-start="none" marker-mid="none">
  <defs id="svg1.defs2761">
            <linearGradient x1="143" gradientUnits="userSpaceOnUse" x2="295" y1="384" y2="424" id="linearGradient1" spreadMethod="reflect">
              <stop stop-opacity="1" stop-color="rgb(204,255,204)" offset="0%"/>
              <stop stop-opacity="1" stop-color="rgb(51,153,102)" offset="100%"/>
            </linearGradient>
            <linearGradient x1="327" gradientUnits="userSpaceOnUse" x2="517" y1="374.5" y2="433.5" id="linearGradient2" spreadMethod="reflect">
              <stop stop-opacity="1" stop-color="rgb(204,255,204)" offset="0%"/>
              <stop stop-opacity="1" stop-color="rgb(51,153,102)" offset="100%"/>
            </linearGradient>
            <linearGradient x1="319" gradientUnits="userSpaceOnUse" x2="525" y1="533" y2="600" id="linearGradient3" spreadMethod="reflect">
              <stop stop-opacity="1" stop-color="rgb(204,255,204)" offset="0%"/>
              <stop stop-opacity="1" stop-color="rgb(51,153,102)" offset="100%"/>
            </linearGradient>
            <linearGradient x1="728" gradientUnits="userSpaceOnUse" x2="955" y1="668" y2="735" id="linearGradient4" spreadMethod="reflect">
              <stop stop-opacity="1" stop-color="rgb(204,255,204)" offset="0%"/>
              <stop stop-opacity="1" stop-color="rgb(51,153,102)" offset="100%"/>
            </linearGradient>
            <linearGradient x1="475" gradientUnits="userSpaceOnUse" x2="681" y1="668" y2="735" id="linearGradient5" spreadMethod="reflect">
              <stop stop-opacity="1" stop-color="rgb(204,255,204)" offset="0%"/>
              <stop stop-opacity="1" stop-color="rgb(51,153,102)" offset="100%"/>
            </linearGradient>
            <linearGradient x1="585" gradientUnits="userSpaceOnUse" x2="1023" y1="533" y2="600" id="linearGradient6" spreadMethod="reflect">
              <stop stop-opacity="1" stop-color="rgb(204,255,204)" offset="0%"/>
              <stop stop-opacity="1" stop-color="rgb(51,153,102)" offset="100%"/>
            </linearGradient>
            <linearGradient x1="738.5" gradientUnits="userSpaceOnUse" x2="944.5" y1="831" y2="898" id="linearGradient7" spreadMethod="reflect">
              <stop stop-opacity="1" stop-color="rgb(204,255,204)" offset="0%"/>
              <stop stop-opacity="1" stop-color="rgb(51,153,102)" offset="100%"/>
            </linearGradient>
            <linearGradient x1="1104" gradientUnits="userSpaceOnUse" x2="1310" y1="533" y2="600" id="linearGradient8" spreadMethod="reflect">
              <stop stop-opacity="1" stop-color="rgb(204,255,204)" offset="0%"/>
              <stop stop-opacity="1" stop-color="rgb(51,153,102)" offset="100%"/>
            </linearGradient>
            <linearGradient x1="585" gradientUnits="userSpaceOnUse" x2="1023" y1="438" y2="472" id="linearGradient9" spreadMethod="reflect">
              <stop stop-opacity="1" stop-color="rgb(204,255,204)" offset="0%"/>
              <stop stop-opacity="1" stop-color="rgb(51,153,102)" offset="100%"/>
            </linearGradient>
            <linearGradient x1="1002" gradientUnits="userSpaceOnUse" x2="1208" y1="668" y2="735" id="linearGradient10" spreadMethod="reflect">
              <stop stop-opacity="1" stop-color="rgb(255,255,153)" offset="0%"/>
              <stop stop-opacity="1" stop-color="rgb(255,204,0)" offset="100%"/>
            </linearGradient>
            <clipPath clipPathUnits="userSpaceOnUse" id="clipPath1">
              <path d="M0 0 L1197 0 L1197 554 L0 554 L0 0 Z"/>
            </clipPath>
            <clipPath clipPathUnits="userSpaceOnUse" id="clipPath2">
              <path d="M128 359 L1325 359 L1325 913 L128 913 L128 359 Z"/>
            </clipPath>
            <clipPath clipPathUnits="userSpaceOnUse" id="clipPath3">
              <path d="M-917 -484.5 L280 -484.5 L280 69.5 L-917 69.5 L-917 -484.5 Z"/>
            </clipPath>
          </defs>
  
  <metadata id="svg1.metadata2764">
    
  </metadata>
  <g inkscape:label="Layer 1" inkscape:groupmode="layer" id="svg1.layer1">
    <g inkscape:export-xdpi="300.23013" id="svg1.g260" inkscape:export-filename="/mnt/hgfs/Bov/Documents/Work/2007/cc/identity/srr buttons/big/by.png" transform="matrix(0.9937728,0,0,0.9936696,-177.69267,6.25128e-7)" inkscape:export-ydpi="300.23013">
	<path id="svg1.path3817_1_" d="M 181.96579,0.51074 L 296.02975,0.71338 C 297.6235,0.71338 299.04733,0.47705 299.04733,3.89404 L 298.90768,41.46093 L 179.08737,41.46093 L 179.08737,3.75439 C 179.08737,2.06934 179.25046,0.51074 181.96579,0.51074 z" style="fill:#aab2ab" nodetypes="ccccccc"/>

	<path d="M 297.29636,0 L 181.06736,0 C 179.82078,0 178.80613,1.01416 178.80613,2.26074 L 178.80613,41.75732 C 178.80613,42.03906 179.03513,42.26757 179.31687,42.26757 L 299.04734,42.26757 C 299.32908,42.26757 299.55808,42.03905 299.55808,41.75732 L 299.55808,2.26074 C 299.55807,1.01416 298.54343,0 297.29636,0 z M 181.06735,1.02148 L 297.29635,1.02148 C 297.98043,1.02148 298.53658,1.57714 298.53658,2.26074 C 298.53658,2.26074 298.53658,18.20898 298.53658,29.71045 L 215.19234,29.71045 C 212.14742,35.21631 206.28121,38.95459 199.54879,38.95459 C 192.81344,38.95459 186.94869,35.21973 183.90524,29.71045 L 179.8276,29.71045 C 179.8276,18.20899 179.8276,2.26074 179.8276,2.26074 C 179.82761,1.57715 180.38376,1.02148 181.06735,1.02148 z" id="svg1.path263"/>

	<g enable-background="new    " id="svg1.g265">
		<path style="fill:#ffffff" d="M 253.07761,32.95605 C 253.39499,32.95605 253.68503,32.98437 253.94773,33.04003 C 254.20945,33.09569 254.43308,33.18749 254.62058,33.31542 C 254.8071,33.44237 254.95261,33.6123 255.05515,33.82323 C 255.15769,34.03514 255.20945,34.29589 255.20945,34.60741 C 255.20945,34.94335 255.13328,35.22264 254.97996,35.44628 C 254.82762,35.67089 254.60105,35.85351 254.30223,35.99706 C 254.71434,36.11522 255.02196,36.32226 255.22508,36.61815 C 255.4282,36.91404 255.52977,37.27049 255.52977,37.68749 C 255.52977,38.02343 255.46434,38.31444 255.33348,38.56054 C 255.20262,38.80566 255.02586,39.00683 254.80516,39.1621 C 254.58348,39.31835 254.33055,39.43358 254.04735,39.5078 C 253.76317,39.583 253.47215,39.6201 253.17235,39.6201 L 249.936,39.6201 L 249.936,32.95604 L 253.07761,32.95604 L 253.07761,32.95605 z M 252.89011,35.65137 C 253.15183,35.65137 253.36667,35.58887 253.53562,35.46485 C 253.70359,35.34083 253.78757,35.13965 253.78757,34.86036 C 253.78757,34.70509 253.75925,34.57716 253.70359,34.47852 C 253.64695,34.37891 253.57273,34.30176 253.47898,34.24512 C 253.38523,34.18946 253.27781,34.15039 253.15671,34.12891 C 253.03561,34.10743 252.90866,34.09668 252.77878,34.09668 L 251.40476,34.09668 L 251.40476,35.65137 L 252.89011,35.65137 z M 252.97604,38.47949 C 253.11959,38.47949 253.25631,38.46582 253.38717,38.4375 C 253.51803,38.40918 253.63326,38.3623 253.73385,38.29785 C 253.83346,38.23242 253.91256,38.14355 253.97213,38.03125 C 254.0317,37.91992 254.061,37.77637 254.061,37.60254 C 254.061,37.26074 253.96432,37.0166 253.77096,36.87012 C 253.5776,36.72461 253.32174,36.65137 253.00436,36.65137 L 251.40475,36.65137 L 251.40475,38.47949 L 252.97604,38.47949 z" id="svg1.path267"/>

		<path style="fill:#ffffff" d="M 255.78854,32.95605 L 257.43209,32.95605 L 258.99264,35.58789 L 260.54342,32.95605 L 262.17721,32.95605 L 259.70358,37.0625 L 259.70358,39.62012 L 258.23483,39.62012 L 258.23483,37.02539 L 255.78854,32.95605 z" id="svg1.path269"/>

	</g>

	<g id="svg1.g5908_1_" transform="matrix(0.872921,0,0,0.872921,50.12536,143.2144)">
		
			<path type="arc" style="fill:#ffffff" rx="22.939548" cx="296.35416" cy="264.3577" id="svg1.path5906_1_" ry="22.939548" d="M 186.90065,-141.46002 C 186.90623,-132.77923 179.87279,-125.73852 171.19257,-125.73291 C 162.51235,-125.72736 155.47051,-132.76025 155.46547,-141.44098 C 155.46547,-141.44714 155.46547,-141.45331 155.46547,-141.46002 C 155.46043,-150.14081 162.49333,-157.18152 171.17355,-157.18658 C 179.8549,-157.19213 186.89561,-150.15924 186.90065,-141.47845 C 186.90065,-141.4729 186.90065,-141.46619 186.90065,-141.46002 z"/>

		<g id="svg1.g5706_1_" transform="translate(-289.6157,99.0653)">
			<path id="svg1.path5708_1_" d="M 473.57574,-253.32751 C 477.06115,-249.8421 478.80413,-245.5736 478.80413,-240.52532 C 478.80413,-235.47594 477.09136,-231.25329 473.66582,-227.85741 C 470.03051,-224.28081 465.734,-222.49309 460.77635,-222.49309 C 455.87858,-222.49309 451.65648,-224.26628 448.11122,-227.81261 C 444.56541,-231.35845 442.79277,-235.59563 442.79277,-240.52532 C 442.79277,-245.45391 444.56541,-249.7213 448.11122,-253.32751 C 451.56642,-256.81402 455.7885,-258.557 460.77635,-258.557 C 465.82465,-258.55701 470.09039,-256.81403 473.57574,-253.32751 z M 450.45776,-250.98267 C 447.51104,-248.00629 446.03823,-244.51978 446.03823,-240.52033 C 446.03823,-236.52198 447.49651,-233.06507 450.41247,-230.14966 C 453.32897,-227.23316 456.80096,-225.77545 460.82952,-225.77545 C 464.85808,-225.77545 468.35967,-227.24768 471.33605,-230.19385 C 474.16198,-232.9303 475.57549,-236.37091 475.57549,-240.52033 C 475.57549,-244.63837 474.13903,-248.13379 471.26781,-251.00501 C 468.39714,-253.87568 464.9179,-255.31159 460.82952,-255.31159 C 456.74112,-255.31158 453.28314,-253.86841 450.45776,-250.98267 z M 458.21225,-242.27948 C 457.76196,-243.26117 457.08795,-243.75232 456.18903,-243.75232 C 454.59986,-243.75232 453.80558,-242.68225 453.80558,-240.54321 C 453.80558,-238.40368 454.59986,-237.33471 456.18903,-237.33471 C 457.23841,-237.33471 457.98795,-237.85546 458.43769,-238.89922 L 460.64045,-237.72625 C 459.59052,-235.86077 458.01536,-234.92779 455.91496,-234.92779 C 454.29506,-234.92779 452.99733,-235.42449 452.0229,-236.4168 C 451.0468,-237.41021 450.56016,-238.77953 450.56016,-240.52532 C 450.56016,-242.24035 451.06245,-243.60186 452.06764,-244.61034 C 453.07283,-245.61888 454.32466,-246.12291 455.82545,-246.12291 C 458.04557,-246.12291 459.63526,-245.24803 460.59626,-243.50005 L 458.21225,-242.27948 z M 468.57562,-242.27948 C 468.12475,-243.26117 467.46417,-243.75232 466.5932,-243.75232 C 464.97217,-243.75232 464.16107,-242.68225 464.16107,-240.54321 C 464.16107,-238.40368 464.97217,-237.33471 466.5932,-237.33471 C 467.64429,-237.33471 468.38037,-237.85546 468.80048,-238.89922 L 471.05249,-237.72625 C 470.00421,-235.86077 468.43127,-234.92779 466.33478,-234.92779 C 464.7171,-234.92779 463.42218,-235.42449 462.44831,-236.4168 C 461.47614,-237.41021 460.98896,-238.77953 460.98896,-240.52532 C 460.98896,-242.24035 461.48341,-243.60186 462.47181,-244.61034 C 463.45966,-245.61888 464.71711,-246.12291 466.24531,-246.12291 C 468.4615,-246.12291 470.04896,-245.24803 471.0066,-243.50005 L 468.57562,-242.27948 z"/>

		</g>

	</g>

	<g id="svg1.g275">
		<circle style="fill:#ffffff" sodipodi:cx="255.55124" r="10.80664" cx="255.55124" sodipodi:cy="15.31348" cy="15.31348" id="svg1.circle277" sodipodi:rx="10.80664" sodipodi:ry="10.80664"/>

		<g id="svg1.g279">
			<path d="M 258.67819,12.18701 C 258.67819,11.77051 258.3403,11.4331 257.92526,11.4331 L 253.15182,11.4331 C 252.73678,11.4331 252.39889,11.7705 252.39889,12.18701 L 252.39889,16.95996 L 253.72994,16.95996 L 253.72994,22.61182 L 257.34713,22.61182 L 257.34713,16.95996 L 258.67818,16.95996 L 258.67818,12.18701 L 258.67819,12.18701 z" id="svg1.path281"/>

			<circle sodipodi:cx="255.53854" r="1.63281" cx="255.53854" sodipodi:cy="9.1723604" cy="9.1723604" sodipodi:rx="1.63281" id="svg1.circle283" sodipodi:ry="1.63281"/>

		</g>

		<path clip-rule="evenodd" d="M 255.5239,3.40723 C 252.29148,3.40723 249.55515,4.53516 247.31589,6.79102 C 245.01804,9.12452 243.8696,11.88672 243.8696,15.07569 C 243.8696,18.26466 245.01804,21.00733 247.31589,23.30225 C 249.61374,25.59668 252.35007,26.74414 255.5239,26.74414 C 258.73679,26.74414 261.52195,25.58789 263.87742,23.27295 C 266.09715,21.07568 267.2075,18.34326 267.2075,15.07568 C 267.2075,11.8081 266.07762,9.04687 263.8198,6.79101 C 261.56003,4.53516 258.79538,3.40723 255.5239,3.40723 z M 255.55319,5.50684 C 258.20163,5.50684 260.45065,6.44092 262.30026,8.30811 C 264.1694,10.15528 265.10397,12.41114 265.10397,15.07569 C 265.10397,17.75928 264.18893,19.98633 262.35885,21.75587 C 260.43014,23.66212 258.16256,24.61476 255.55319,24.61476 C 252.94284,24.61476 250.69381,23.67189 248.80612,21.78517 C 246.91647,19.89845 245.97311,17.66212 245.97311,15.0757 C 245.97311,12.48879 246.92721,10.23341 248.83541,8.30812 C 250.6655,6.44092 252.90475,5.50684 255.55319,5.50684 z" id="svg1.path285" style="fill-rule:evenodd"/>

	</g>

</g>
  </g>
</svg>
      </g>
    </g>
    <g text-rendering="geometricPrecision" stroke-miterlimit="1.45" shape-rendering="geometricPrecision" transform="matrix(1,0,0,1,-128,-359)" stroke-linecap="butt">
      <path fill="none" d="M294.9763 404 L319.0114 404" clip-path="url(#clipPath2)"/>
    </g>
    <g text-rendering="geometricPrecision" stroke-miterlimit="1.45" shape-rendering="geometricPrecision" transform="matrix(1,0,0,1,-128,-359)" stroke-linecap="butt">
      <path d="M327.0114 404 L315.0114 399 L318.0114 404 L315.0114 409 Z" stroke="none" clip-path="url(#clipPath2)"/>
      <path fill="none" d="M326.9924 404 L303.0113 404" clip-path="url(#clipPath2)"/>
      <path d="M295.0113 404 L307.0113 409 L304.0113 404 L307.0113 399 Z" clip-path="url(#clipPath2)" stroke="none"/>
      <path fill="none" d="M422 433.4769 L422 525.0169" clip-path="url(#clipPath2)"/>
      <path d="M422 533.0169 L427 521.0169 L422 524.0169 L417 521.0169 Z" clip-path="url(#clipPath2)" stroke="none"/>
      <path fill="none" d="M422 532.9764 L422 441.5046" clip-path="url(#clipPath2)"/>
      <path d="M422 433.5046 L417 445.5046 L422 442.5046 L427 445.5046 Z" clip-path="url(#clipPath2)" stroke="none"/>
      <path fill="none" d="M525.0076 566.5 L576.9814 566.5" clip-path="url(#clipPath2)"/>
      <path d="M584.9814 566.5 L572.9814 561.5 L575.9814 566.5 L572.9814 571.5 Z" clip-path="url(#clipPath2)" stroke="none"/>
      <path fill="none" d="M634.0862 667.9972 L741.0887 604.0798" clip-path="url(#clipPath2)"/>
      <path d="M747.9567 599.9772 L735.0906 601.8386 L740.2302 604.5926 L740.2188 610.4235 Z" clip-path="url(#clipPath2)" stroke="none"/>
      <path fill="none" d="M832.1891 667.9807 L815.4526 607.7295" clip-path="url(#clipPath2)"/>
      <path d="M813.3115 600.0214 L811.7056 612.9218 L815.7203 608.693 L821.3408 610.2454 Z" clip-path="url(#clipPath2)" stroke="none"/>
      <path fill="none" d="M747.9138 600.0028 L640.9113 663.9202" clip-path="url(#clipPath2)"/>
      <path d="M634.0433 668.0228 L646.9094 666.1614 L641.7698 663.4074 L641.7812 657.5765 Z" clip-path="url(#clipPath2)" stroke="none"/>
      <path fill="none" d="M584.9749 566.5 L533.0132 566.5" clip-path="url(#clipPath2)"/>
      <path d="M525.0132 566.5 L537.0132 571.5 L534.0132 566.5 L537.0132 561.5 Z" clip-path="url(#clipPath2)" stroke="none"/>
      <path fill="none" d="M813.3109 600.0193 L830.0474 660.2705" clip-path="url(#clipPath2)"/>
      <path d="M832.1885 667.9786 L833.7944 655.0782 L829.7797 659.307 L824.1592 657.7546 Z" clip-path="url(#clipPath2)" stroke="none"/>
      <path fill="none" d="M841.5 734.9735 L841.5 823.0141" clip-path="url(#clipPath2)"/>
      <path d="M841.5 831.0141 L846.5 819.0141 L841.5 822.0141 L836.5 819.0141 Z" clip-path="url(#clipPath2)" stroke="none"/>
      <path fill="none" d="M841.5 831.0325 L841.5 742.99" clip-path="url(#clipPath2)"/>
      <path d="M841.5 734.99 L836.5 746.99 L841.5 743.99 L846.5 746.99 Z" clip-path="url(#clipPath2)" stroke="none"/>
      <path fill="none" d="M1022.964 566.5 L1095.974 566.5" clip-path="url(#clipPath2)"/>
      <path d="M1103.974 566.5 L1091.974 561.5 L1094.974 566.5 L1091.974 571.5 Z" clip-path="url(#clipPath2)" stroke="none"/>
      <path fill="none" d="M1104.0251 566.5 L1030.9985 566.5" clip-path="url(#clipPath2)"/>
      <path d="M1022.9985 566.5 L1034.9985 571.5 L1031.9985 566.5 L1034.9985 561.5 Z" clip-path="url(#clipPath2)" stroke="none"/>
      <path fill="none" d="M516.9871 416.6815 L668.7154 436.9384" clip-path="url(#clipPath2)"/>
      <path d="M676.645 437.9971 L665.4122 431.4531 L667.7242 436.8061 L664.0889 441.3651 Z" clip-path="url(#clipPath2)" stroke="none"/>
      <path fill="none" d="M525.0076 536.4337 L738.0494 474.25" clip-path="url(#clipPath2)"/>
      <path d="M745.729 472.0084 L732.8087 470.571 L737.0895 474.5302 L735.6107 480.1704 Z" clip-path="url(#clipPath2)" stroke="none"/>
      <path fill="none" d="M1104.0117 538.0057 L873.1263 474.1255" clip-path="url(#clipPath2)"/>
      <path d="M865.416 471.9922 L875.6481 480.0111 L874.0901 474.3922 L878.3148 470.3732 Z" clip-path="url(#clipPath2)" stroke="none"/>
      <path fill="none" d="M865.4683 472.0067 L1096.2715 535.8642" clip-path="url(#clipPath2)"/>
      <path d="M1103.9818 537.9974 L1093.7496 529.9786 L1095.3077 535.5975 L1091.083 539.6165 Z" clip-path="url(#clipPath2)" stroke="none"/>
      <path fill="none" d="M745.7581 471.9999 L532.7114 534.185" clip-path="url(#clipPath2)"/>
      <path d="M525.0319 536.4266 L537.9521 537.8639 L533.6713 533.9048 L535.1501 528.2645 Z" clip-path="url(#clipPath2)" stroke="none"/>
      <path fill="none" d="M676.6511 437.9979 L524.9575 417.7456" clip-path="url(#clipPath2)"/>
      <path d="M517.0279 416.687 L528.2607 423.231 L525.9487 417.878 L529.584 413.3189 Z" clip-path="url(#clipPath2)" stroke="none"/>
      <path fill="none" d="M878.6989 600.0028 L1023.0311 664.7366" clip-path="url(#clipPath2)"/>
      <path d="M1030.3306 668.0104 L1021.4275 658.5375 L1022.1187 664.3273 L1017.3353 667.6618 Z" clip-path="url(#clipPath2)" stroke="none"/>
      <path fill="none" d="M1030.3011 667.9972 L885.9689 603.2634" clip-path="url(#clipPath2)"/>
      <path d="M878.6694 599.9896 L887.5725 609.4625 L886.8813 603.6727 L891.6647 600.3382 Z" clip-path="url(#clipPath2)" stroke="none"/>
    </g>
  </g>
</svg>
