<?xml version="1.0" encoding="UTF-8" standalone="no"?>
<!-- Created with Inkscape (http://www.inkscape.org/) -->

<svg
   xmlns:dc="http://purl.org/dc/elements/1.1/"
   xmlns:cc="http://creativecommons.org/ns#"
   xmlns:rdf="http://www.w3.org/1999/02/22-rdf-syntax-ns#"
   xmlns:svg="http://www.w3.org/2000/svg"
   xmlns="http://www.w3.org/2000/svg"
   xmlns:xlink="http://www.w3.org/1999/xlink"
   xmlns:sodipodi="http://sodipodi.sourceforge.net/DTD/sodipodi-0.dtd"
   xmlns:inkscape="http://www.inkscape.org/namespaces/inkscape"
   inkscape:version="0.91 r13725"
   version="1.1"
   id="svg2"
   height="1052.3622047"
   width="744.09448819"
   sodipodi:docname="pit_005.svg"
   inkscape:label="Grid"
   inkscape:export-xdpi="90"
   inkscape:export-ydpi="90">
  <title
     id="title4785">Where They Come From</title>
  <defs
     id="defs4">
    <marker
       inkscape:stockid="Arrow1Lend"
       orient="auto"
       refY="0.0"
       refX="0.0"
       id="Arrow1Lend"
       style="overflow:visible;"
       inkscape:isstock="true">
      <path
         id="path4230"
         d="M 0.0,0.0 L 5.0,-5.0 L -12.5,0.0 L 5.0,5.0 L 0.0,0.0 z "
         style="fill-rule:evenodd;stroke:#000000;stroke-width:1pt;stroke-opacity:1;fill:#000000;fill-opacity:1"
         transform="scale(0.8) rotate(180) translate(12.5,0)" />
    </marker>
    <linearGradient
       id="linearGradient4148-1"
       inkscape:collect="always">
      <stop
         id="stop4158"
         offset="0"
         style="stop-color:#6400ff;stop-opacity:0.29479769" />
      <stop
         style="stop-color:#6400ff;stop-opacity:1"
         offset="0.99009901"
         id="stop4180" />
      <stop
         id="stop4160"
         offset="1"
         style="stop-color:#6400ff;stop-opacity:0;" />
    </linearGradient>
    <radialGradient
       inkscape:collect="always"
       xlink:href="#linearGradient4148-1"
       id="radialGradient4154"
       cx="-330"
       cy="270.0022"
       fx="-330"
       fy="270.0022"
       r="151.5"
       gradientTransform="matrix(0.46165772,0,0,0.0579939,547.21425,-508.04369)"
       gradientUnits="userSpaceOnUse" />
    <radialGradient
       inkscape:collect="always"
       xlink:href="#linearGradient4148-1"
       id="radialGradient4154-1"
       cx="-330"
       cy="270.0022"
       fx="-330"
       fy="270.0022"
       r="151.5"
       gradientTransform="matrix(0.66534135,0,0,0.07788598,340.80016,979.56524)"
       gradientUnits="userSpaceOnUse" />
  </defs>
  <sodipodi:namedview
     id="base"
     pagecolor="#ffffff"
     bordercolor="#666666"
     borderopacity="1.0"
     inkscape:pageopacity="1"
     inkscape:pageshadow="2"
     inkscape:zoom="0.89132811"
     inkscape:cx="372.04724"
     inkscape:cy="526.18109"
     inkscape:document-units="px"
     inkscape:current-layer="layer3"
     showgrid="true"
     inkscape:window-width="1920"
     inkscape:window-height="1137"
     inkscape:window-x="-8"
     inkscape:window-y="-8"
     inkscape:window-maximized="1">
    <inkscape:grid
       type="xygrid"
       id="grid3266"
       empspacing="5"
       visible="true"
       enabled="true"
       snapvisiblegridlinesonly="true"
       spacingx="20px"
       spacingy="20px"
       originy="-7.64px" />
  </sodipodi:namedview>
  <metadata
     id="metadata7">
    <rdf:RDF>
      <cc:Work
         rdf:about="">
        <dc:format>image/svg+xml</dc:format>
        <dc:type
           rdf:resource="http://purl.org/dc/dcmitype/StillImage" />
        <dc:title>Where They Come From</dc:title>
        <dc:creator>
          <cc:Agent>
            <dc:title>Rogue Prismatic Golem</dc:title>
          </cc:Agent>
        </dc:creator>
        <dc:publisher>
          <cc:Agent>
            <dc:title>Rogue Prismatic golem</dc:title>
          </cc:Agent>
        </dc:publisher>
        <dc:source>http://rogueprismaticgolem.blogspot.com/</dc:source>
        <dc:description>Bottomless Pits by Rogue Prismatic Golem is licensed under a Creative Commons Attribution 4.0 International License.</dc:description>
        <cc:license
           rdf:resource="http://creativecommons.org/licenses/by/4.0/" />
      </cc:Work>
    </rdf:RDF>
  </metadata>
  <g
     inkscape:label="Grid"
     inkscape:groupmode="layer"
     id="layer1"
     sodipodi:insensitive="true">
    <path
       d="M 0,0 0,1052.3622 M 20,0 20,1052.3622 M 40,0 40,1052.3622 M 60,0 60,1052.3622 M 80,0 80,1052.3622 M 100,0 100,1052.3622 M 120,0 120,1052.3622 M 140,0 140,1052.3622 M 160,0 160,1052.3622 M 180,0 180,1052.3622 M 200,0 200,1052.3622 M 220,0 220,1052.3622 M 240,0 240,1052.3622 M 260,0 260,1052.3622 M 280,0 280,1052.3622 M 300,0 300,1052.3622 M 320,0 320,1052.3622 M 340,0 340,1052.3622 M 360,0 360,1052.3622 M 380,0 380,1052.3622 M 400,0 400,1052.3622 M 420,0 420,1052.3622 M 440,0 440,1052.3622 M 460,0 460,1052.3622 M 480,0 480,1052.3622 M 500,0 500,1052.3622 M 520,0 520,1052.3622 M 540,0 540,1052.3622 M 560,0 560,1052.3622 M 580,0 580,1052.3622 M 600,0 600,1052.3622 M 620,0 620,1052.3622 M 640,0 640,1052.3622 M 660,0 660,1052.3622 M 680,0 680,1052.3622 M 700,0 700,1052.3622 M 720,0 720,1052.3622 M 740,0 740,1052.3622 M 0,0 744.09448,0 M 0,20 744.09448,20 M 0,40 744.09448,40 M 0,60 744.09448,60 M 0,80 744.09448,80 M 0,100 744.09448,100 M 0,120 744.09448,120 M 0,140 744.09448,140 M 0,160 744.09448,160 M 0,180 744.09448,180 M 0,200 744.09448,200 M 0,220 744.09448,220 M 0,240 744.09448,240 M 0,260 744.09448,260 M 0,280 744.09448,280 M 0,300 744.09448,300 M 0,320 744.09448,320 M 0,340 744.09448,340 M 0,360 744.09448,360 M 0,380 744.09448,380 M 0,400 744.09448,400 M 0,420 744.09448,420 M 0,440 744.09448,440 M 0,460 744.09448,460 M 0,480 744.09448,480 M 0,500 744.09448,500 M 0,520 744.09448,520 M 0,540 744.09448,540 M 0,560 744.09448,560 M 0,580 744.09448,580 M 0,600 744.09448,600 M 0,620 744.09448,620 M 0,640 744.09448,640 M 0,660 744.09448,660 M 0,680 744.09448,680 M 0,700 744.09448,700 M 0,720 744.09448,720 M 0,740 744.09448,740 M 0,760 744.09448,760 M 0,780 744.09448,780 M 0,800 744.09448,800 M 0,820 744.09448,820 M 0,840 744.09448,840 M 0,860 744.09448,860 M 0,880 744.09448,880 M 0,900 744.09448,900 M 0,920 744.09448,920 M 0,940 744.09448,940 M 0,960 744.09448,960 M 0,980 744.09448,980 M 0,1000 l 744.09448,0 M 0,1020 l 744.09448,0 M 0,1040 l 744.09448,0"
       style="fill:none;stroke:#0000ff;stroke-width:1;stroke-linecap:butt;stroke-linejoin:miter;stroke-miterlimit:4;stroke-opacity:0.25098039;stroke-dasharray:none"
       id="path3268"
       inkscape:connector-curvature="0" />
  </g>
  <g
     inkscape:groupmode="layer"
     id="layer2"
     inkscape:label="Drawing"
     sodipodi:insensitive="true">
    <path
       style="fill:none;fill-rule:evenodd;stroke:#000000;stroke-width:3;stroke-linecap:butt;stroke-linejoin:miter;stroke-miterlimit:4;stroke-dasharray:none;stroke-opacity:1"
       d="m 22,122.00218 0,900.00002 200,0 0,-900.00002"
       id="path4136"
       inkscape:connector-curvature="0" />
    <ellipse
       style="opacity:1;fill:url(#radialGradient4154-1);fill-opacity:1;stroke:#000000;stroke-width:2.47873759;stroke-miterlimit:4;stroke-dasharray:none;stroke-opacity:1"
       id="path4138-3"
       cx="121.23753"
       cy="1000.5946"
       rx="99.801208"
       ry="10.260631" />
    <path
       style="opacity:1;fill:#ffffff;fill-opacity:1;stroke:#000000;stroke-width:2.03190303;stroke-miterlimit:4;stroke-dasharray:none;stroke-opacity:1"
       d="M 494.71289,324.94141 A 213.34979,213.34979 0 0 0 281.36328,538.29102 213.34979,213.34979 0 0 0 494.71289,751.64062 213.34979,213.34979 0 0 0 708.0625,538.29102 213.34979,213.34979 0 0 0 494.71289,324.94141 Z m 0,139.16797 a 74.181801,74.181801 0 0 1 74.18164,74.18164 74.181801,74.181801 0 0 1 -74.18164,74.18164 74.181801,74.181801 0 0 1 -74.18164,-74.18164 74.181801,74.181801 0 0 1 74.18164,-74.18164 z"
       id="path4181"
       inkscape:connector-curvature="0" />
    <ellipse
       style="opacity:1;fill:url(#radialGradient4154);fill-opacity:1;stroke:#000000;stroke-width:1.7816807;stroke-miterlimit:4;stroke-dasharray:none;stroke-opacity:1"
       id="path4138"
       cx="394.86719"
       cy="-492.38519"
       rx="69.248665"
       ry="7.6400661"
       transform="matrix(0,1,-1,0,0,0)" />
  </g>
  <g
     inkscape:groupmode="layer"
     id="layer3"
     inkscape:label="Text"
     style="display:inline">
    <flowRoot
       xml:space="preserve"
       id="flowRoot4788"
       style="font-style:normal;font-variant:normal;font-weight:normal;font-stretch:normal;font-size:35px;line-height:125%;font-family:'Poor Richard';-inkscape-font-specification:'Poor Richard';letter-spacing:0px;word-spacing:0px;fill:#000000;fill-opacity:1;stroke:none;stroke-width:1px;stroke-linecap:butt;stroke-linejoin:miter;stroke-opacity:1"
       transform="translate(-100.99108,837.35341)"><flowRegion
         id="flowRegion4790"><rect
           id="rect4792"
           width="220"
           height="220"
           x="380"
           y="100.00218" /></flowRegion><flowPara
         id="flowPara4794">Gate 1</flowPara></flowRoot>    <flowRoot
       transform="translate(148.54673,150.00936)"
       xml:space="preserve"
       id="flowRoot4788-8"
       style="font-style:normal;font-variant:normal;font-weight:normal;font-stretch:normal;font-size:35px;line-height:125%;font-family:'Poor Richard';-inkscape-font-specification:'Poor Richard';letter-spacing:0px;word-spacing:0px;fill:#000000;fill-opacity:1;stroke:none;stroke-width:1px;stroke-linecap:butt;stroke-linejoin:miter;stroke-opacity:1"><flowRegion
         id="flowRegion4790-6"><rect
           id="rect4792-1"
           width="220"
           height="220"
           x="380"
           y="100.00218" /></flowRegion><flowPara
         id="flowPara4794-8">Gate 2</flowPara></flowRoot>    <path
       style="fill:none;fill-rule:evenodd;stroke:#000000;stroke-width:2;stroke-linecap:butt;stroke-linejoin:miter;stroke-miterlimit:4;stroke-dasharray:none;stroke-opacity:1"
       d="M 278.03822,969.39347 226.39941,997.6424"
       id="path4820"
       inkscape:connector-curvature="0"
       sodipodi:nodetypes="cc" />
    <path
       style="fill:none;fill-rule:evenodd;stroke:#000000;stroke-width:2;stroke-linecap:butt;stroke-linejoin:miter;stroke-miterlimit:4;stroke-dasharray:none;stroke-opacity:1"
       d="m 528.48278,286.8494 -35.48017,36.61015"
       id="path4822"
       inkscape:connector-curvature="0"
       sodipodi:nodetypes="cc" />
    <flowRoot
       xml:space="preserve"
       id="flowRoot4824"
       style="font-style:normal;font-variant:normal;font-weight:normal;font-stretch:normal;font-size:35px;line-height:125%;font-family:'Poor Richard';-inkscape-font-specification:'Poor Richard';letter-spacing:0px;word-spacing:0px;fill:#000000;fill-opacity:1;stroke:none;stroke-width:1px;stroke-linecap:butt;stroke-linejoin:miter;stroke-opacity:1"
       transform="translate(-359.01482,-373.5998)"><flowRegion
         id="flowRegion4826"><rect
           id="rect4828"
           width="280"
           height="180"
           x="380"
           y="380.0022" /></flowRegion><flowPara
         id="flowPara4830"
         style="font-size:50px">Pit Design 5</flowPara></flowRoot>    <flowRoot
       xml:space="preserve"
       id="flowRoot4788-6"
       style="font-style:normal;font-variant:normal;font-weight:normal;font-stretch:normal;font-size:35px;line-height:125%;font-family:'Poor Richard';-inkscape-font-specification:'Poor Richard';text-align:center;letter-spacing:0px;word-spacing:0px;text-anchor:middle;display:inline;fill:#000000;fill-opacity:1;stroke:none;stroke-width:1px;stroke-linecap:butt;stroke-linejoin:miter;stroke-opacity:1"
       transform="matrix(0.86189541,0,0,0.80534196,70.402426,417.98475)"><flowRegion
         id="flowRegion4790-4"><rect
           id="rect4792-7"
           width="220"
           height="220"
           x="380"
           y="100.00218"
           style="text-align:center;text-anchor:middle" /></flowRegion><flowPara
         id="flowPara4794-87">Torus</flowPara><flowPara
         id="flowPara4219">Dimension</flowPara></flowRoot>    <path
       style="fill:none;fill-rule:evenodd;stroke:#000000;stroke-width:2;stroke-linecap:butt;stroke-linejoin:miter;stroke-opacity:1;marker-end:url(#Arrow1Lend);stroke-miterlimit:4;stroke-dasharray:none"
       d="m 500,400.00218 c 80,0 106.73153,68.97537 106.73153,68.97537"
       id="path4221"
       inkscape:connector-curvature="0"
       sodipodi:nodetypes="cc" />
  </g>
  <g
     inkscape:groupmode="layer"
     id="layer4"
     inkscape:label="CC License"
     sodipodi:insensitive="true">
    <g
       id="layer1-1"
       inkscape:label="Layer 1"
       transform="translate(573.88554,993.21686)">
      <g
         inkscape:export-ydpi="300.23013"
         inkscape:export-xdpi="300.23013"
         inkscape:export-filename="/mnt/hgfs/Bov/Documents/Work/2007/cc/identity/srr buttons/big/by.png"
         id="g260"
         transform="matrix(0.9937728,0,0,0.9936696,-177.69267,6.25128e-7)">
        <path
           style="fill:#aab2ab"
           d="m 181.96579,0.51074 114.06396,0.20264 c 1.59375,0 3.01758,-0.23633 3.01758,3.18066 l -0.13965,37.56689 -119.82031,0 0,-37.70654 c 0,-1.68505 0.16309,-3.24365 2.87842,-3.24365 z"
           nodetypes="ccccccc"
           id="path3817_1_"
           inkscape:connector-curvature="0" />
        <path
           id="path263"
           d="m 297.29636,0 -116.229,0 c -1.24658,0 -2.26123,1.01416 -2.26123,2.26074 l 0,39.49658 c 0,0.28174 0.229,0.51025 0.51074,0.51025 l 119.73047,0 c 0.28174,0 0.51074,-0.22852 0.51074,-0.51025 l 0,-39.49658 C 299.55807,1.01416 298.54343,0 297.29636,0 Z m -116.22901,1.02148 116.229,0 c 0.68408,0 1.24023,0.55566 1.24023,1.23926 0,0 0,15.94824 0,27.44971 l -83.34424,0 c -3.04492,5.50586 -8.91113,9.24414 -15.64355,9.24414 -6.73535,0 -12.6001,-3.73486 -15.64355,-9.24414 l -4.07764,0 c 0,-11.50146 0,-27.44971 0,-27.44971 1e-5,-0.68359 0.55616,-1.23926 1.23975,-1.23926 z"
           inkscape:connector-curvature="0" />
        <g
           id="g265"
           enable-background="new    ">
          <path
             style="fill:#ffffff"
             id="path267"
             d="m 253.07761,32.95605 c 0.31738,0 0.60742,0.02832 0.87012,0.08398 0.26172,0.05566 0.48535,0.14746 0.67285,0.27539 0.18652,0.12695 0.33203,0.29688 0.43457,0.50781 0.10254,0.21191 0.1543,0.47266 0.1543,0.78418 0,0.33594 -0.0762,0.61523 -0.22949,0.83887 -0.15234,0.22461 -0.37891,0.40723 -0.67773,0.55078 0.41211,0.11816 0.71973,0.3252 0.92285,0.62109 0.20312,0.29589 0.30469,0.65234 0.30469,1.06934 0,0.33594 -0.0654,0.62695 -0.19629,0.87305 -0.13086,0.24512 -0.30762,0.44629 -0.52832,0.60156 -0.22168,0.15625 -0.47461,0.27148 -0.75781,0.3457 -0.28418,0.0752 -0.5752,0.1123 -0.875,0.1123 l -3.23635,0 0,-6.66406 3.14161,0 0,10e-6 z m -0.1875,2.69532 c 0.26172,0 0.47656,-0.0625 0.64551,-0.18652 0.16797,-0.12402 0.25195,-0.3252 0.25195,-0.60449 0,-0.15527 -0.0283,-0.2832 -0.084,-0.38184 -0.0566,-0.09961 -0.13086,-0.17676 -0.22461,-0.2334 -0.0937,-0.05566 -0.20117,-0.09473 -0.32227,-0.11621 -0.1211,-0.02148 -0.24805,-0.03223 -0.37793,-0.03223 l -1.37402,0 0,1.55469 1.48535,0 z m 0.0859,2.82812 c 0.14355,0 0.28027,-0.01367 0.41113,-0.04199 0.13086,-0.02832 0.24609,-0.0752 0.34668,-0.13965 0.0996,-0.06543 0.17871,-0.1543 0.23828,-0.2666 0.0596,-0.11133 0.0889,-0.25488 0.0889,-0.42871 0,-0.3418 -0.0967,-0.58594 -0.29004,-0.73242 -0.19336,-0.14551 -0.44922,-0.21875 -0.7666,-0.21875 l -1.59961,0 0,1.82812 1.57129,0 z"
             inkscape:connector-curvature="0" />
          <path
             style="fill:#ffffff"
             id="path269"
             d="m 255.78854,32.95605 1.64355,0 1.56055,2.63184 1.55078,-2.63184 1.63379,0 -2.47363,4.10645 0,2.55762 -1.46875,0 0,-2.59473 -2.44629,-4.06934 z"
             inkscape:connector-curvature="0" />
        </g>
        <g
           transform="matrix(0.872921,0,0,0.872921,50.12536,143.2144)"
           id="g5908_1_">
          <path
             style="fill:#ffffff"
             d="m 186.90065,-141.46002 c 0.006,8.68079 -7.02786,15.7215 -15.70808,15.72711 -8.68022,0.006 -15.72206,-7.02734 -15.7271,-15.70807 0,-0.006 0,-0.0123 0,-0.019 -0.005,-8.68079 7.02786,-15.7215 15.70808,-15.72656 8.68135,-0.006 15.72206,7.02734 15.7271,15.70813 0,0.006 0,0.0123 0,0.0184 z"
             rx="22.939548"
             type="arc"
             cy="264.3577"
             ry="22.939548"
             cx="296.35416"
             id="path5906_1_"
             inkscape:connector-curvature="0" />
          <g
             transform="translate(-289.6157,99.0653)"
             id="g5706_1_">
            <path
               d="m 473.57574,-253.32751 c 3.48541,3.48541 5.22839,7.75391 5.22839,12.80219 0,5.04938 -1.71277,9.27203 -5.13831,12.66791 -3.63531,3.5766 -7.93182,5.36432 -12.88947,5.36432 -4.89777,0 -9.11987,-1.77319 -12.66513,-5.31952 -3.54581,-3.54584 -5.31845,-7.78302 -5.31845,-12.71271 0,-4.92859 1.77264,-9.19598 5.31845,-12.80219 3.4552,-3.48651 7.67728,-5.22949 12.66513,-5.22949 5.0483,-10e-6 9.31404,1.74297 12.79939,5.22949 z m -23.11798,2.34484 c -2.94672,2.97638 -4.41953,6.46289 -4.41953,10.46234 0,3.99835 1.45828,7.45526 4.37424,10.37067 2.9165,2.9165 6.38849,4.37421 10.41705,4.37421 4.02856,0 7.53015,-1.47223 10.50653,-4.4184 2.82593,-2.73645 4.23944,-6.17706 4.23944,-10.32648 0,-4.11804 -1.43646,-7.61346 -4.30768,-10.48468 -2.87067,-2.87067 -6.34991,-4.30658 -10.43829,-4.30658 -4.0884,1e-5 -7.54638,1.44318 -10.37176,4.32892 z m 7.75449,8.70319 c -0.45029,-0.98169 -1.1243,-1.47284 -2.02322,-1.47284 -1.58917,0 -2.38345,1.07007 -2.38345,3.20911 0,2.13953 0.79428,3.2085 2.38345,3.2085 1.04938,0 1.79892,-0.52075 2.24866,-1.56451 l 2.20276,1.17297 c -1.04993,1.86548 -2.62509,2.79846 -4.72549,2.79846 -1.6199,0 -2.91763,-0.4967 -3.89206,-1.48901 -0.9761,-0.99341 -1.46274,-2.36273 -1.46274,-4.10852 0,-1.71503 0.50229,-3.07654 1.50748,-4.08502 1.00519,-1.00854 2.25702,-1.51257 3.75781,-1.51257 2.22012,0 3.80981,0.87488 4.77081,2.62286 l -2.38401,1.22057 z m 10.36337,0 c -0.45087,-0.98169 -1.11145,-1.47284 -1.98242,-1.47284 -1.62103,0 -2.43213,1.07007 -2.43213,3.20911 0,2.13953 0.8111,3.2085 2.43213,3.2085 1.05109,0 1.78717,-0.52075 2.20728,-1.56451 l 2.25201,1.17297 c -1.04828,1.86548 -2.62122,2.79846 -4.71771,2.79846 -1.61768,0 -2.9126,-0.4967 -3.88647,-1.48901 -0.97217,-0.99341 -1.45935,-2.36273 -1.45935,-4.10852 0,-1.71503 0.49445,-3.07654 1.48285,-4.08502 0.98785,-1.00854 2.2453,-1.51257 3.7735,-1.51257 2.21619,0 3.80365,0.87488 4.76129,2.62286 l -2.43098,1.22057 z"
               id="path5708_1_"
               inkscape:connector-curvature="0" />
          </g>
        </g>
        <g
           id="g275">
          <circle
             style="fill:#ffffff"
             id="circle277"
             r="10.80664"
             cy="15.31348"
             cx="255.55124" />
          <g
             id="g279">
            <path
               id="path281"
               d="m 258.67819,12.18701 c 0,-0.4165 -0.33789,-0.75391 -0.75293,-0.75391 l -4.77344,0 c -0.41504,0 -0.75293,0.3374 -0.75293,0.75391 l 0,4.77295 1.33105,0 0,5.65186 3.61719,0 0,-5.65186 1.33105,0 0,-4.77295 10e-6,0 z"
               inkscape:connector-curvature="0" />
            <circle
               id="circle283"
               r="1.63281"
               cy="9.1723604"
               cx="255.53854" />
          </g>
          <path
             style="clip-rule:evenodd;fill-rule:evenodd"
             id="path285"
             d="m 255.5239,3.40723 c -3.23242,0 -5.96875,1.12793 -8.20801,3.38379 -2.29785,2.3335 -3.44629,5.0957 -3.44629,8.28467 0,3.18897 1.14844,5.93164 3.44629,8.22656 2.29785,2.29443 5.03418,3.44189 8.20801,3.44189 3.21289,0 5.99805,-1.15625 8.35352,-3.47119 2.21973,-2.19727 3.33008,-4.92969 3.33008,-8.19727 0,-3.26758 -1.12988,-6.02881 -3.3877,-8.28467 -2.25977,-2.25585 -5.02442,-3.38378 -8.2959,-3.38378 z m 0.0293,2.09961 c 2.64844,0 4.89746,0.93408 6.74707,2.80127 1.86914,1.84717 2.80371,4.10303 2.80371,6.76758 0,2.68359 -0.91504,4.91064 -2.74512,6.68018 -1.92871,1.90625 -4.19629,2.85889 -6.80566,2.85889 -2.61035,0 -4.85938,-0.94287 -6.74707,-2.82959 -1.88965,-1.88672 -2.83301,-4.12305 -2.83301,-6.70947 0,-2.58691 0.9541,-4.84229 2.8623,-6.76758 1.83009,-1.8672 4.06934,-2.80128 6.71778,-2.80128 z"
             inkscape:connector-curvature="0" />
        </g>
      </g>
    </g>
  </g>
</svg>
